<svg width="137" height="35" viewBox="0 0 137 35" fill="none" xmlns="http://www.w3.org/2000/svg">
<path d="M17.903 23.6249H9.31975C7.98523 23.6249 6.88407 22.5245 6.88407 21.191C6.88407 19.8574 7.98523 18.7571 9.31975 18.7571H17.903V15.9588C17.903 12.1987 14.9203 9.48786 11.4783 9.48786C8.03628 9.48786 5.05366 12.1914 5.05366 15.9588V32.2382C5.05366 33.6155 3.90875 34.7596 2.53048 34.7596C1.14491 34.7669 0 33.6228 0 32.2455V16.0535C0 9.49515 5.04637 4.63464 11.4783 4.63464C17.903 4.63464 22.9566 9.49515 22.9566 16.0535V32.2455C22.9566 33.6228 21.8117 34.7669 20.4334 34.7669C19.0552 34.7669 17.9102 33.6228 17.9102 32.2455V23.6249H17.903Z" fill="#1DB24B"/>
<path d="M27.9519 2.47762C27.9519 1.10035 29.0531 0 30.4313 0C31.8096 0 32.9108 1.10035 32.9108 2.47762V32.2892C32.9108 33.6665 31.8096 34.7668 30.4313 34.7668C29.0531 34.7668 27.9519 33.6665 27.9519 32.2892V2.47762Z" fill="#1DB24B"/>
<path d="M37.8696 2.47762C37.8696 1.10035 38.9708 0 40.3491 0C41.7273 0 42.8285 1.10035 42.8285 2.47762V32.2892C42.8285 33.6665 41.7273 34.7668 40.3491 34.7668C38.9708 34.7668 37.8696 33.6665 37.8696 32.2892V2.47762Z" fill="#1DB24B"/>
<path d="M61.3733 34.4025C53.0672 34.4025 46.6863 28.07 46.6863 19.8137C46.6863 11.5574 53.0672 5.22485 61.3733 5.22485H67.1999C68.5345 5.22485 69.6356 6.32521 69.6356 7.65875C69.6356 8.99229 68.5345 10.0926 67.1999 10.0926H61.3733C55.9112 10.0926 51.7327 14.2682 51.7327 19.8137C51.7327 25.3591 55.9112 29.5347 61.3733 29.5347H67.1999C68.5345 29.5347 69.6356 30.635 69.6356 31.9686C69.6356 33.3021 68.5345 34.4025 67.1999 34.4025H61.3733V34.4025Z" fill="black"/>
<path d="M78.9991 34.4025C74.5434 34.4025 71.4733 31.0067 71.4733 26.8822C71.4733 22.7504 74.5507 19.3619 78.9991 19.3619H83.6371C84.9716 19.3619 86.0727 20.4622 86.0727 21.7958C86.0727 23.1293 84.9716 24.2296 83.6371 24.2296H78.9991C77.4822 24.2296 76.4321 25.5122 76.4321 26.8894C76.4321 28.2667 77.4895 29.5492 78.9991 29.5492H87.9031V19.2744C87.9031 16.8405 86.204 14.9604 83.6808 14.9604H75.8779C74.5434 14.9604 73.4422 13.8601 73.4422 12.5265C73.4422 11.193 74.5434 10.0927 75.8779 10.0927H83.6808C88.822 10.0927 92.862 14.1734 92.862 19.2234V31.9321C92.862 33.3094 91.9869 34.4097 90.3826 34.4097H78.9991V34.4025Z" fill="black"/>
<path d="M116.453 19.5878C116.453 20.965 115.352 22.0654 113.974 22.0654C112.595 22.0654 111.494 20.965 111.494 19.6315V19.3108C111.494 16.877 109.708 14.9532 107.133 14.9532H102.772V32.2892C102.772 33.6665 101.671 34.7668 100.293 34.7668C98.9148 34.7668 97.8136 33.6665 97.8136 32.2892V12.5703C97.8136 11.193 98.9148 10.0927 100.293 10.0927H107.133C112.369 10.0927 116.453 14.2682 116.453 19.3108V19.5878Z" fill="black"/>
<path d="M131.512 34.4024C126.786 34.4024 122.929 30.5476 122.929 25.8255V14.9531H120.041C118.706 14.9531 117.605 13.8528 117.605 12.5192C117.605 11.1857 118.706 10.0854 120.041 10.0854H122.929V5.23213C122.929 3.85487 124.03 2.75452 125.408 2.75452C126.786 2.75452 127.888 3.85487 127.888 5.23213V10.0926H134.268C135.603 10.0926 136.704 11.193 136.704 12.5265C136.704 13.8601 135.603 14.9604 134.268 14.9604H127.888V25.8692C127.888 27.9315 129.448 29.5419 131.563 29.5419H134.268C135.603 29.5419 136.704 30.6423 136.704 31.9758C136.704 33.3094 135.603 34.4097 134.268 34.4097H131.512V34.4024Z" fill="black"/>
</svg>
