<svg width="63" height="47" viewBox="0 0 63 47" fill="none" xmlns="http://www.w3.org/2000/svg">
<path d="M48.0416 35.1757H17.3281L12.4356 6.11974H3.04888C1.36357 6.11974 0 4.75125 0 3.05987C0 1.36848 1.36357 0 3.04888 0H17.5885L22.481 29.0559H48.0416C49.7269 29.0559 51.0905 30.4244 51.0905 32.1158C51.0905 33.8072 49.7218 35.1757 48.0416 35.1757Z" fill="#1DB24B"/>
<path d="M57.1218 35.1757H38.4557C33.3589 35.1757 29.212 31.0139 29.212 25.8987C29.212 20.7836 33.3589 16.6217 38.4557 16.6217H50.641C52.3263 16.6217 53.6899 17.9902 53.6899 19.6816C53.6899 21.373 52.3263 22.7415 50.641 22.7415H38.4557C36.7244 22.7415 35.3098 24.1561 35.3098 25.8987C35.3098 27.6362 36.7193 29.056 38.4557 29.056H52.8524L56.5754 18.7898C57.1882 17.1035 56.9482 15.2891 55.9217 13.8181C54.8952 12.3471 53.2813 11.5015 51.4888 11.5015H36.847C35.1617 11.5015 33.7981 10.133 33.7981 8.44158C33.7981 6.7502 35.1617 5.38171 36.847 5.38171H51.4888C55.2424 5.38171 58.7663 7.22174 60.9163 10.3072C63.0664 13.3927 63.5873 17.3444 62.3054 20.881L57.1218 35.1757Z" fill="#1DB24B"/>
<path d="M26.8015 47C29.2159 47 31.1731 45.0358 31.1731 42.6127C31.1731 40.1896 29.2159 38.2253 26.8015 38.2253C24.3872 38.2253 22.4299 40.1896 22.4299 42.6127C22.4299 45.0358 24.3872 47 26.8015 47Z" fill="#1DB24B"/>
<path d="M46.913 47C49.3273 47 51.2846 45.0358 51.2846 42.6127C51.2846 40.1896 49.3273 38.2253 46.913 38.2253C44.4986 38.2253 42.5414 40.1896 42.5414 42.6127C42.5414 45.0358 44.4986 47 46.913 47Z" fill="#1DB24B"/>
</svg>
